Pacifico-Bold.ufo
<glyph name="percent" format="1">
  <advance width="783"/>
  <unicode hex="0025"/>
  <outline>
    <contour>
      <point x="155" y="216" type="curve" smooth="yes"/>
      <point x="172" y="216"/>
      <point x="189" y="219"/>
      <point x="206" y="227" type="curve" smooth="yes"/>
      <point x="278" y="257"/>
      <point x="330" y="341"/>
      <point x="330" y="441" type="curve" smooth="yes"/>
      <point x="330" y="526"/>
      <point x="290" y="589"/>
      <point x="203" y="589" type="curve" smooth="yes"/>
      <point x="88" y="589"/>
      <point x="27" y="489"/>
      <point x="27" y="376" type="curve" smooth="yes"/>
      <point x="27" y="291"/>
      <point x="69" y="216"/>
    </contour>
    <contour>
      <point x="164" y="295" type="curve" smooth="yes"/>
      <point x="137" y="295"/>
      <point x="133" y="348"/>
      <point x="133" y="383" type="curve" smooth="yes"/>
      <point x="133" y="440"/>
      <point x="149" y="511"/>
      <point x="192" y="511" type="curve" smooth="yes"/>
      <point x="220" y="511"/>
      <point x="227" y="478"/>
      <point x="227" y="441" type="curve" smooth="yes"/>
      <point x="227" y="389"/>
      <point x="207" y="295"/>
    </contour>
    <contour>
      <point x="303" y="44" type="curve" smooth="yes"/>
      <point x="257" y="-36"/>
      <point x="593" y="567"/>
      <point x="567" y="521" type="curve"/>
      <point x="610" y="596"/>
      <point x="552" y="632"/>
      <point x="516" y="569" type="curve" smooth="yes"/>
      <point x="226" y="78" type="line"/>
      <point x="186" y="8"/>
      <point x="262" y="-30"/>
    </contour>
    <contour>
      <point x="600" y="74" type="curve" smooth="yes"/>
      <point x="576" y="74"/>
      <point x="571" y="114"/>
      <point x="571" y="148" type="curve" smooth="yes"/>
      <point x="571" y="205"/>
      <point x="583" y="285"/>
      <point x="630" y="285" type="curve" smooth="yes"/>
      <point x="654" y="285"/>
      <point x="659" y="236"/>
      <point x="659" y="201" type="curve" smooth="yes"/>
      <point x="659" y="153"/>
      <point x="639" y="74"/>
    </contour>
    <contour>
      <point x="592" y="-6" type="curve" smooth="yes"/>
      <point x="697" y="-6"/>
      <point x="760" y="97"/>
      <point x="760" y="208" type="curve" smooth="yes"/>
      <point x="760" y="293"/>
      <point x="726" y="365"/>
      <point x="640" y="365" type="curve" smooth="yes"/>
      <point x="522" y="365"/>
      <point x="465" y="258"/>
      <point x="465" y="141" type="curve" smooth="yes"/>
      <point x="465" y="59"/>
      <point x="507" y="-6"/>
    </contour>
  </outline>
</glyph>
<glyph name="five" format="1">
  <advance width="430"/>
  <unicode hex="0035"/>
  <outline>
    <contour>
      <point x="237" y="-8" type="curve" smooth="yes"/>
      <point x="320" y="-9"/>
      <point x="415" y="36"/>
      <point x="410" y="154" type="curve" smooth="yes"/>
      <point x="406" y="292"/>
      <point x="289" y="320"/>
      <point x="204" y="301" type="curve"/>
      <point x="232" y="377" type="line"/>
      <point x="351" y="380"/>
      <point x="422" y="339"/>
      <point x="433" y="431" type="curve" smooth="yes"/>
      <point x="440" y="495"/>
      <point x="412" y="495"/>
      <point x="406" y="487" type="curve" smooth="yes"/>
      <point x="364" y="428"/>
      <point x="311" y="485"/>
      <point x="224" y="485" type="curve" smooth="yes"/>
      <point x="123" y="485"/>
      <point x="179" y="414"/>
      <point x="119" y="304" type="curve" smooth="yes"/>
      <point x="97" y="260"/>
      <point x="110" y="225"/>
      <point x="147" y="232" type="curve" smooth="yes"/>
      <point x="251" y="252"/>
      <point x="317" y="211"/>
      <point x="312" y="138" type="curve" smooth="yes"/>
      <point x="310" y="93"/>
      <point x="263" y="73"/>
      <point x="226" y="73" type="curve" smooth="yes"/>
      <point x="178" y="74"/>
      <point x="162" y="88"/>
      <point x="149" y="110" type="curve" smooth="yes"/>
      <point x="141" y="115"/>
      <point x="138" y="125"/>
      <point x="138" y="138" type="curve" smooth="yes"/>
      <point x="138" y="158"/>
      <point x="124" y="164"/>
      <point x="126" y="166" type="curve" smooth="yes"/>
      <point x="108" y="166"/>
      <point x="74" y="155"/>
      <point x="72" y="111" type="curve" smooth="yes"/>
      <point x="68" y="30"/>
      <point x="133" y="-8"/>
    </contour>
  </outline>
</glyph>
<glyph name="less" format="1">
  <advance width="404"/>
  <unicode hex="003C"/>
  <outline>
    <contour>
      <point x="402" y="112"/>
      <point x="371" y="128"/>
      <point x="344" y="138" type="curve" smooth="yes"/>
      <point x="154" y="205" type="line"/>
      <point x="359" y="270" type="line" smooth="yes"/>
      <point x="373" y="274"/>
      <point x="388" y="281"/>
      <point x="388" y="304" type="curve" smooth="yes"/>
      <point x="388" y="352"/>
      <point x="368" y="383"/>
      <point x="315" y="362" type="curve" smooth="yes"/>
      <point x="112" y="282" type="line" smooth="yes"/>
      <point x="86" y="272"/>
      <point x="41" y="262"/>
      <point x="41" y="198" type="curve" smooth="yes"/>
      <point x="41" y="149"/>
      <point x="54" y="139"/>
      <point x="119" y="115" type="curve" smooth="yes"/>
      <point x="294" y="50" type="line" smooth="yes"/>
      <point x="343" y="32"/>
      <point x="366" y="39"/>
      <point x="377" y="61" type="curve" smooth="yes"/>
    </contour>
  </outline>
</glyph>
<glyph name="E" format="1">
  <advance width="576"/>
  <unicode hex="0045"/>
  <outline>
    <contour>
      <point x="45" y="92" type="curve" smooth="yes"/>
      <point x="44" y="-6"/>
      <point x="111" y="-99"/>
      <point x="259" y="-109" type="curve" smooth="yes"/>
      <point x="442" y="-121"/>
      <point x="607" y="-13"/>
      <point x="681" y="69" type="curve" smooth="yes"/>
      <point x="690" y="78"/>
      <point x="693" y="88"/>
      <point x="693" y="99" type="curve" smooth="yes"/>
      <point x="693" y="124"/>
      <point x="677" y="153"/>
      <point x="652" y="153" type="curve" smooth="yes"/>
      <point x="642" y="153"/>
      <point x="631" y="147"/>
      <point x="620" y="136" type="curve" smooth="yes"/>
      <point x="537" y="49"/>
      <point x="408" y="-11"/>
      <point x="309" y="-12" type="curve" smooth="yes"/>
      <point x="235" y="-13"/>
      <point x="178" y="18"/>
      <point x="169" y="94" type="curve" smooth="yes"/>
      <point x="159" y="179"/>
      <point x="220" y="265"/>
      <point x="390" y="274" type="curve" smooth="yes"/>
      <point x="433" y="276"/>
      <point x="443" y="298"/>
      <point x="443" y="325" type="curve" smooth="yes"/>
      <point x="443" y="345"/>
      <point x="430" y="368"/>
      <point x="404" y="372" type="curve" smooth="yes"/>
      <point x="288" y="391"/>
      <point x="250" y="416"/>
      <point x="250" y="498" type="curve" smooth="yes"/>
      <point x="250" y="639"/>
      <point x="473" y="678"/>
      <point x="562" y="604" type="curve"/>
      <point x="501" y="586"/>
      <point x="500" y="539"/>
      <point x="512" y="508" type="curve" smooth="yes"/>
      <point x="521" y="486"/>
      <point x="548" y="473"/>
      <point x="576" y="474" type="curve" smooth="yes"/>
      <point x="614" y="475"/>
      <point x="654" y="501"/>
      <point x="651" y="562" type="curve" smooth="yes"/>
      <point x="646" y="665"/>
      <point x="534" y="718"/>
      <point x="414" y="718" type="curve" smooth="yes"/>
      <point x="272" y="717"/>
      <point x="121" y="643"/>
      <point x="122" y="489" type="curve" smooth="yes"/>
      <point x="123" y="407"/>
      <point x="186" y="334"/>
      <point x="316" y="331" type="curve"/>
      <point x="143" y="334"/>
      <point x="46" y="210"/>
    </contour>
    <contour>
      <point x="352" y="-87" type="move" name="ogonek"/>
    </contour>
    <contour>
      <point x="271" y="-89" type="move" name="bot"/>
    </contour>
    <contour>
      <point x="413" y="708" type="move" name="top"/>
    </contour>
  </outline>
</glyph>
<glyph name="H" format="1">
  <advance width="820"/>
  <unicode hex="0048"/>
  <outline>
    <contour>
      <point x="804" y="-76" type="curve" smooth="yes"/>
      <point x="838" y="-49"/>
      <point x="805" y="27"/>
      <point x="771" y="5" type="curve" smooth="yes"/>
      <point x="677" y="-55"/>
      <point x="504" y="-145"/>
      <point x="576" y="132" type="curve" smooth="yes"/>
      <point x="634" y="355" type="line" smooth="yes"/>
      <point x="694" y="587"/>
      <point x="836" y="588"/>
      <point x="826" y="472" type="curve" smooth="yes"/>
      <point x="819" y="391"/>
      <point x="758" y="218"/>
      <point x="160" y="284" type="curve" smooth="yes"/>
      <point x="111" y="289"/>
      <point x="79" y="215"/>
      <point x="141" y="207" type="curve" smooth="yes"/>
      <point x="820" y="118"/>
      <point x="916" y="371"/>
      <point x="918" y="482" type="curve" smooth="yes"/>
      <point x="921" y="656"/>
      <point x="662" y="733"/>
      <point x="549" y="374" type="curve" smooth="yes"/>
      <point x="476" y="143" type="line" smooth="yes"/>
      <point x="372" y="-185"/>
      <point x="618" y="-223"/>
    </contour>
    <contour>
      <point x="136" y="-157" type="curve" smooth="yes"/>
      <point x="183" y="-168"/>
      <point x="203" y="-130"/>
      <point x="216" y="-89" type="curve" smooth="yes"/>
      <point x="356" y="356" type="line" smooth="yes"/>
      <point x="405" y="512"/>
      <point x="400" y="612"/>
      <point x="314" y="663" type="curve" smooth="yes"/>
      <point x="178" y="743"/>
      <point x="-43" y="653"/>
      <point x="-90" y="439" type="curve" smooth="yes"/>
      <point x="-102" y="384"/>
      <point x="-31" y="351"/>
      <point x="0" y="432" type="curve" smooth="yes"/>
      <point x="44" y="546"/>
      <point x="111" y="604"/>
      <point x="190" y="600" type="curve" smooth="yes"/>
      <point x="260" y="596"/>
      <point x="308" y="534"/>
      <point x="263" y="401" type="curve" smooth="yes"/>
      <point x="107" y="-56" type="line" smooth="yes"/>
      <point x="78" y="-136"/>
      <point x="108" y="-150"/>
    </contour>
    <contour>
      <point x="587" y="708" type="move" name="top"/>
    </contour>
  </outline>
</glyph>
<glyph name="M" format="1">
  <advance width="919"/>
  <unicode hex="004D"/>
  <outline>
    <contour>
      <point x="177" y="14" type="curve" smooth="yes"/>
      <point x="297" y="385"/>
      <point x="360" y="539"/>
      <point x="462" y="536" type="curve" smooth="yes"/>
      <point x="530" y="534"/>
      <point x="514" y="443"/>
      <point x="497" y="381" type="curve" smooth="yes"/>
      <point x="378" y="-23" type="line"/>
      <point x="383" y="-27"/>
      <point x="411" y="-49"/>
      <point x="445" y="-49" type="curve" smooth="yes"/>
      <point x="484" y="-49"/>
      <point x="489" y="-9"/>
      <point x="506" y="39" type="curve" smooth="yes"/>
      <point x="594" y="289"/>
      <point x="674" y="545"/>
      <point x="767" y="562" type="curve" smooth="yes"/>
      <point x="849" y="577"/>
      <point x="823" y="465"/>
      <point x="791" y="358" type="curve" smooth="yes"/>
      <point x="721" y="123" type="line" smooth="yes"/>
      <point x="690" y="19"/>
      <point x="693" y="-79"/>
      <point x="822" y="-93" type="curve" smooth="yes"/>
      <point x="870" y="-98"/>
      <point x="926" y="-88"/>
      <point x="974" y="-33" type="curve" smooth="yes"/>
      <point x="1012" y="11"/>
      <point x="955" y="58"/>
      <point x="927" y="27" type="curve" smooth="yes"/>
      <point x="877" y="-30"/>
      <point x="778" y="-18"/>
      <point x="806" y="78" type="curve" smooth="yes"/>
      <point x="881" y="334" type="line" smooth="yes"/>
      <point x="901" y="402"/>
      <point x="916" y="465"/>
      <point x="920" y="530" type="curve" smooth="yes"/>
      <point x="923" y="569"/>
      <point x="913" y="675"/>
      <point x="791" y="660" type="curve" smooth="yes"/>
      <point x="708" y="650"/>
      <point x="639" y="569"/>
      <point x="572" y="398" type="curve"/>
      <point x="622" y="580"/>
      <point x="586" y="656"/>
      <point x="495" y="650" type="curve" smooth="yes"/>
      <point x="416" y="645"/>
      <point x="331" y="598"/>
      <point x="241" y="388" type="curve"/>
      <point x="290" y="557"/>
      <point x="308" y="648"/>
      <point x="187" y="657" type="curve" smooth="yes"/>
      <point x="113" y="662"/>
      <point x="12" y="599"/>
      <point x="-9" y="510" type="curve" smooth="yes"/>
      <point x="-17" y="473"/>
      <point x="52" y="433"/>
      <point x="58" y="433" type="curve" smooth="yes"/>
      <point x="87" y="497"/>
      <point x="131" y="579"/>
      <point x="175" y="570" type="curve" smooth="yes"/>
      <point x="199" y="564"/>
      <point x="193" y="482"/>
      <point x="145" y="318" type="curve" smooth="yes"/>
      <point x="41" y="-32" type="line"/>
      <point x="47" y="-37"/>
      <point x="79" y="-59"/>
      <point x="121" y="-59" type="curve" smooth="yes"/>
      <point x="160" y="-59"/>
      <point x="165" y="-23"/>
    </contour>
  </outline>
</glyph>
<glyph name="N" format="1">
  <advance width="626"/>
  <unicode hex="004E"/>
  <outline>
    <contour>
      <point x="68" y="-58" type="curve" smooth="yes"/>
      <point x="104" y="-58"/>
      <point x="118" y="-34"/>
      <point x="144" y="30" type="curve" smooth="yes"/>
      <point x="247" y="260" type="line" smooth="yes"/>
      <point x="324" y="437"/>
      <point x="395" y="563"/>
      <point x="515" y="564" type="curve" smooth="yes"/>
      <point x="536" y="565"/>
      <point x="554" y="550"/>
      <point x="554" y="530" type="curve" smooth="yes"/>
      <point x="556" y="440"/>
      <point x="436" y="288"/>
      <point x="407" y="101" type="curve" smooth="yes"/>
      <point x="385" y="-41"/>
      <point x="581" y="-102"/>
      <point x="694" y="31" type="curve" smooth="yes"/>
      <point x="748" y="95"/>
      <point x="689" y="144"/>
      <point x="647" y="97" type="curve" smooth="yes"/>
      <point x="597" y="38"/>
      <point x="504" y="44"/>
      <point x="519" y="115" type="curve" smooth="yes"/>
      <point x="558" y="303"/>
      <point x="664" y="438"/>
      <point x="661" y="572" type="curve" smooth="yes"/>
      <point x="660" y="629"/>
      <point x="623" y="668"/>
      <point x="559" y="673" type="curve" smooth="yes"/>
      <point x="377" y="688"/>
      <point x="281" y="505"/>
      <point x="237" y="373" type="curve"/>
      <point x="292" y="494"/>
      <point x="337" y="677"/>
      <point x="189" y="677" type="curve" smooth="yes"/>
      <point x="105" y="677"/>
      <point x="1" y="620"/>
      <point x="-25" y="493" type="curve" smooth="yes"/>
      <point x="-37" y="433"/>
      <point x="8" y="426"/>
      <point x="49" y="424" type="curve"/>
      <point x="83" y="544"/>
      <point x="131" y="589"/>
      <point x="174" y="589" type="curve" smooth="yes"/>
      <point x="219" y="589"/>
      <point x="227" y="511"/>
      <point x="150" y="328" type="curve" smooth="yes"/>
      <point x="96" y="201"/>
      <point x="6" y="-9"/>
      <point x="-6" y="-41" type="curve"/>
      <point x="4" y="-48"/>
      <point x="32" y="-58"/>
    </contour>
    <contour>
      <point x="547" y="708" type="move" name="top"/>
    </contour>
  </outline>
</glyph>
<glyph name="O" format="1">
  <advance width="662"/>
  <unicode hex="004F"/>
  <outline>
    <contour>
      <point x="576" y="314" type="curve" smooth="yes"/>
      <point x="575" y="156"/>
      <point x="493" y="-16"/>
      <point x="326" y="-4" type="curve" smooth="yes"/>
      <point x="224" y="4"/>
      <point x="171" y="121"/>
      <point x="172" y="247" type="curve" smooth="yes"/>
      <point x="173" y="401"/>
      <point x="253" y="568"/>
      <point x="420" y="562" type="curve" smooth="yes"/>
      <point x="524" y="558"/>
      <point x="577" y="441"/>
    </contour>
    <contour>
      <point x="56" y="218" type="curve" smooth="yes"/>
      <point x="62" y="56"/>
      <point x="146" y="-90"/>
      <point x="313" y="-103" type="curve" smooth="yes"/>
      <point x="569" y="-122"/>
      <point x="699" y="107"/>
      <point x="698" y="318" type="curve" smooth="yes"/>
      <point x="696" y="494"/>
      <point x="604" y="658"/>
      <point x="416" y="658" type="curve" smooth="yes"/>
      <point x="171" y="658"/>
      <point x="49" y="426"/>
    </contour>
    <contour>
      <point x="348" y="-90" type="move" name="ogonek"/>
    </contour>
    <contour>
      <point x="467" y="708" type="move" name="top"/>
    </contour>
  </outline>
</glyph>
<glyph name="T" format="1">
  <advance width="489"/>
  <unicode hex="0054"/>
  <outline>
    <contour>
      <point x="69" y="432" type="curve" smooth="yes"/>
      <point x="100" y="481"/>
      <point x="172" y="575"/>
      <point x="474" y="548" type="curve" smooth="yes"/>
      <point x="591" y="537"/>
      <point x="783" y="528"/>
      <point x="803" y="541" type="curve" smooth="yes"/>
      <point x="819" y="551"/>
      <point x="847" y="561"/>
      <point x="837" y="602" type="curve" smooth="yes"/>
      <point x="833" y="618"/>
      <point x="817" y="626"/>
      <point x="789" y="627" type="curve" smooth="yes"/>
      <point x="579" y="627"/>
      <point x="413" y="657"/>
      <point x="263" y="643" type="curve" smooth="yes"/>
      <point x="166" y="627"/>
      <point x="57" y="614"/>
      <point x="1" y="454" type="curve" smooth="yes"/>
      <point x="-15" y="403"/>
      <point x="58" y="410"/>
    </contour>
    <contour>
      <point x="301" y="-85" type="curve" smooth="yes"/>
      <point x="338" y="-89"/>
      <point x="367" y="-74"/>
      <point x="377" y="-6" type="curve" smooth="yes"/>
      <point x="388" y="66"/>
      <point x="433" y="290"/>
      <point x="501" y="560" type="curve"/>
      <point x="427" y="568" type="line"/>
      <point x="345" y="339"/>
      <point x="298" y="184"/>
      <point x="274" y="85" type="curve" smooth="yes"/>
      <point x="253" y="3"/>
      <point x="233" y="-78"/>
    </contour>
    <contour>
      <point x="320" y="-104" type="move" name="bot"/>
    </contour>
  </outline>
</glyph>
<glyph name="Z" format="1">
  <advance width="631"/>
  <unicode hex="005A"/>
  <outline>
    <contour>
      <point x="729" y="524"/>
      <point x="759" y="528"/>
      <point x="771" y="531" type="curve" smooth="yes"/>
      <point x="795" y="537"/>
      <point x="816" y="552"/>
      <point x="809" y="590" type="curve" smooth="yes"/>
      <point x="803" y="622"/>
      <point x="768" y="624"/>
      <point x="737" y="627" type="curve"/>
      <point x="628" y="630"/>
      <point x="509" y="643"/>
      <point x="401" y="646" type="curve" smooth="yes"/>
      <point x="254" y="649"/>
      <point x="105" y="659"/>
      <point x="41" y="454" type="curve" smooth="yes"/>
      <point x="27" y="403"/>
      <point x="95" y="410"/>
      <point x="106" y="432" type="curve"/>
      <point x="134" y="481"/>
      <point x="203" y="535"/>
      <point x="489" y="524" type="curve" smooth="yes"/>
      <point x="520" y="523"/>
      <point x="548" y="522"/>
      <point x="573" y="522" type="curve"/>
      <point x="561" y="514" type="line" smooth="yes"/>
      <point x="404" y="410"/>
      <point x="214" y="186"/>
      <point x="178" y="151" type="curve" smooth="yes"/>
      <point x="112" y="86"/>
      <point x="69" y="39"/>
      <point x="82" y="12" type="curve" smooth="yes"/>
      <point x="92" y="-9"/>
      <point x="127" y="-22"/>
      <point x="147" y="-9" type="curve" smooth="yes"/>
      <point x="166" y="4"/>
      <point x="216" y="41"/>
      <point x="249" y="63" type="curve"/>
      <point x="394" y="-8"/>
      <point x="539" y="-154"/>
      <point x="745" y="-21" type="curve"/>
      <point x="750" y="-17"/>
      <point x="790" y="9"/>
      <point x="777" y="47" type="curve"/>
      <point x="767" y="82"/>
      <point x="732" y="74"/>
      <point x="711" y="61" type="curve"/>
      <point x="542" y="-65"/>
      <point x="476" y="49"/>
      <point x="316" y="129" type="curve"/>
      <point x="367" y="184"/>
      <point x="555" y="418"/>
      <point x="695" y="523" type="curve"/>
    </contour>
    <contour>
      <point x="497" y="679" type="move" name="top"/>
    </contour>
  </outline>
</glyph>
<glyph name="a" format="1">
  <advance width="360"/>
  <unicode hex="0061"/>
  <outline>
    <contour>
      <point x="119" y="-4" type="curve" smooth="yes"/>
      <point x="160" y="-8"/>
      <point x="194" y="12"/>
      <point x="217" y="44" type="curve" smooth="yes"/>
      <point x="230" y="62" type="line"/>
      <point x="233" y="30"/>
      <point x="260" y="1"/>
      <point x="301" y="1" type="curve" smooth="yes"/>
      <point x="360" y="1"/>
      <point x="415" y="54"/>
      <point x="441" y="88" type="curve"/>
      <point x="443" y="93"/>
      <point x="443" y="99"/>
      <point x="444" y="102" type="curve" smooth="yes"/>
      <point x="444" y="127"/>
      <point x="434" y="158"/>
      <point x="414" y="158" type="curve" smooth="yes"/>
      <point x="407" y="158"/>
      <point x="401" y="153"/>
      <point x="395" y="147" type="curve" smooth="yes"/>
      <point x="351" y="88"/>
      <point x="288" y="58"/>
      <point x="297" y="111" type="curve" smooth="yes"/>
      <point x="325" y="272" type="line" smooth="yes"/>
      <point x="330" y="300"/>
      <point x="314" y="313"/>
      <point x="291" y="310" type="curve" smooth="yes"/>
      <point x="264" y="307" type="line"/>
      <point x="266" y="320"/>
      <point x="268" y="337"/>
      <point x="224" y="337" type="curve" smooth="yes"/>
      <point x="139" y="337"/>
      <point x="19" y="247"/>
      <point x="23" y="107" type="curve" smooth="yes"/>
      <point x="26" y="46"/>
      <point x="59" y="2"/>
    </contour>
    <contour>
      <point x="139" y="80" type="curve" smooth="yes"/>
      <point x="67" y="94"/>
      <point x="131" y="270"/>
      <point x="249" y="276" type="curve"/>
      <point x="226" y="168" type="line" smooth="yes"/>
      <point x="210" y="93"/>
      <point x="169" y="74"/>
    </contour>
    <contour>
      <point x="301" y="1" type="move" name="ogonek"/>
    </contour>
    <contour>
      <point x="257" y="343" type="move" name="top"/>
    </contour>
  </outline>
</glyph>
<glyph name="b" format="1">
  <advance width="390"/>
  <unicode hex="0062"/>
  <outline>
    <contour>
      <point x="192" y="-5" type="curve" smooth="yes"/>
      <point x="299" y="-5"/>
      <point x="366" y="94"/>
      <point x="365" y="255" type="curve" smooth="yes"/>
      <point x="365" y="296"/>
      <point x="331" y="316"/>
      <point x="312" y="319" type="curve" smooth="yes"/>
      <point x="254" y="322"/>
      <point x="202" y="279"/>
      <point x="213" y="285" type="curve"/>
      <point x="283" y="343"/>
      <point x="349" y="492"/>
      <point x="360" y="557" type="curve" smooth="yes"/>
      <point x="367" y="598"/>
      <point x="359" y="656"/>
      <point x="295" y="656" type="curve" smooth="yes"/>
      <point x="145" y="656"/>
      <point x="40" y="354"/>
      <point x="34" y="147" type="curve" smooth="yes"/>
      <point x="31" y="52"/>
      <point x="96" y="-5"/>
    </contour>
    <contour>
      <point x="324" y="122" type="curve" smooth="yes"/>
      <point x="376" y="122"/>
      <point x="437" y="139"/>
      <point x="464" y="164" type="curve" smooth="yes"/>
      <point x="476" y="175"/>
      <point x="478" y="183"/>
      <point x="478" y="196" type="curve" smooth="yes"/>
      <point x="478" y="213"/>
      <point x="469" y="227"/>
      <point x="450" y="227" type="curve" smooth="yes"/>
      <point x="433" y="227"/>
      <point x="395" y="182"/>
      <point x="341" y="182" type="curve" smooth="yes"/>
      <point x="304" y="182"/>
      <point x="306" y="227"/>
      <point x="290" y="228" type="curve" smooth="yes"/>
      <point x="266" y="229"/>
      <point x="234" y="201"/>
      <point x="234" y="179" type="curve" smooth="yes"/>
      <point x="234" y="128"/>
      <point x="273" y="122"/>
    </contour>
    <contour>
      <point x="205" y="73" type="curve" smooth="yes"/>
      <point x="157" y="68"/>
      <point x="147" y="113"/>
      <point x="147" y="145" type="curve" smooth="yes"/>
      <point x="147" y="200"/>
      <point x="187" y="252"/>
      <point x="237" y="252" type="curve" smooth="yes"/>
      <point x="290" y="252"/>
      <point x="269" y="235"/>
      <point x="269" y="196" type="curve" smooth="yes"/>
      <point x="269" y="140"/>
      <point x="245" y="77"/>
    </contour>
    <contour>
      <point x="134" y="260" type="curve"/>
      <point x="128" y="285"/>
      <point x="195" y="558"/>
      <point x="261" y="558" type="curve" smooth="yes"/>
      <point x="270" y="558"/>
      <point x="275" y="551"/>
      <point x="272" y="524" type="curve" smooth="yes"/>
      <point x="259" y="452"/>
      <point x="221" y="376"/>
    </contour>
    <contour>
      <point x="437" y="343" type="move" name="top"/>
    </contour>
  </outline>
</glyph>
<glyph name="c" format="1">
  <advance width="270"/>
  <unicode hex="0063"/>
  <outline>
    <contour>
      <point x="176" y="-5" type="curve" smooth="yes"/>
      <point x="259" y="3"/>
      <point x="319" y="62"/>
      <point x="351" y="105" type="curve" smooth="yes"/>
      <point x="366" y="128"/>
      <point x="341" y="168"/>
      <point x="319" y="146" type="curve" smooth="yes"/>
      <point x="279" y="113"/>
      <point x="242" y="67"/>
      <point x="183" y="61" type="curve" smooth="yes"/>
      <point x="137" y="56"/>
      <point x="101" y="84"/>
      <point x="104" y="137" type="curve" smooth="yes"/>
      <point x="107" y="225"/>
      <point x="148" y="253"/>
      <point x="183" y="255" type="curve" smooth="yes"/>
      <point x="199" y="256"/>
      <point x="209" y="250"/>
      <point x="209" y="238" type="curve" smooth="yes"/>
      <point x="209" y="221"/>
      <point x="193" y="207"/>
      <point x="196" y="192" type="curve" smooth="yes"/>
      <point x="199" y="177"/>
      <point x="210" y="162"/>
      <point x="221" y="161" type="curve" smooth="yes"/>
      <point x="258" y="159"/>
      <point x="291" y="197"/>
      <point x="290" y="250" type="curve" smooth="yes"/>
      <point x="289" y="288"/>
      <point x="253" y="330"/>
      <point x="190" y="330" type="curve" smooth="yes"/>
      <point x="71" y="330"/>
      <point x="9" y="205"/>
      <point x="20" y="118" type="curve" smooth="yes"/>
      <point x="30" y="-1"/>
      <point x="127" y="-10"/>
    </contour>
    <contour>
      <point x="130" y="0" type="move" name="bot"/>
    </contour>
    <contour>
      <point x="227" y="343" type="move" name="top"/>
    </contour>
  </outline>
</glyph>
<glyph name="d" format="1">
  <advance width="368.997"/>
  <unicode hex="0064"/>
  <outline>
    <contour>
      <point x="135" y="-5" type="curve" smooth="yes"/>
      <point x="176" y="-7"/>
      <point x="211" y="13"/>
      <point x="230" y="62" type="curve"/>
      <point x="248" y="20"/>
      <point x="298" y="-3"/>
      <point x="337" y="-3" type="curve" smooth="yes"/>
      <point x="413" y="-3"/>
      <point x="463" y="45"/>
      <point x="495" y="87" type="curve" smooth="yes"/>
      <point x="498" y="91"/>
      <point x="505" y="103"/>
      <point x="504" y="115" type="curve" smooth="yes"/>
      <point x="501" y="137"/>
      <point x="483" y="149"/>
      <point x="467" y="150" type="curve" smooth="yes"/>
      <point x="459" y="150"/>
      <point x="452" y="150"/>
      <point x="449" y="147" type="curve" smooth="yes"/>
      <point x="437" y="133"/>
      <point x="388" y="71"/>
      <point x="345" y="71" type="curve" smooth="yes"/>
      <point x="321" y="71"/>
      <point x="292" y="90"/>
      <point x="296" y="160" type="curve"/>
      <point x="372" y="276"/>
      <point x="531" y="457"/>
      <point x="498" y="589" type="curve" smooth="yes"/>
      <point x="489" y="625"/>
      <point x="460" y="657"/>
      <point x="414" y="657" type="curve" smooth="yes"/>
      <point x="308" y="657"/>
      <point x="257" y="547"/>
      <point x="229" y="329" type="curve"/>
      <point x="115" y="358"/>
      <point x="9" y="226"/>
      <point x="21" y="101" type="curve" smooth="yes"/>
      <point x="28" y="35"/>
      <point x="81" y="-2"/>
    </contour>
    <contour>
      <point x="146" y="78" type="curve" smooth="yes"/>
      <point x="123" y="82"/>
      <point x="110" y="111"/>
      <point x="111" y="146" type="curve" smooth="yes"/>
      <point x="112" y="198"/>
      <point x="146" y="263"/>
      <point x="222" y="270" type="curve"/>
      <point x="214" y="194" type="line" smooth="yes"/>
      <point x="203" y="86"/>
      <point x="177" y="72"/>
    </contour>
    <contour>
      <point x="418" y="537" type="curve" smooth="yes"/>
      <point x="418" y="484"/>
      <point x="349" y="352"/>
      <point x="298" y="263" type="curve"/>
      <point x="315" y="399"/>
      <point x="341" y="561"/>
      <point x="401" y="561" type="curve" smooth="yes"/>
      <point x="413" y="561"/>
      <point x="419" y="552"/>
    </contour>
    <contour>
      <point x="103" y="343" type="move" name="top"/>
    </contour>
    <contour>
      <point x="521" y="555" type="move" name="caron.alt"/>
    </contour>
    <contour>
      <point x="283" y="474" type="move" name="mid"/>
    </contour>
  </outline>
</glyph>
<glyph name="e" format="1">
  <advance width="293"/>
  <unicode hex="0065"/>
  <outline>
    <contour>
      <point x="162" y="-6" type="curve" smooth="yes"/>
      <point x="245" y="-7"/>
      <point x="323" y="42"/>
      <point x="354" y="86" type="curve" smooth="yes"/>
      <point x="382" y="123"/>
      <point x="337" y="152"/>
      <point x="317" y="132" type="curve" smooth="yes"/>
      <point x="253" y="72"/>
      <point x="143" y="51"/>
      <point x="116" y="99" type="curve"/>
      <point x="239" y="120"/>
      <point x="298" y="172"/>
      <point x="295" y="241" type="curve" smooth="yes"/>
      <point x="293" y="298"/>
      <point x="255" y="332"/>
      <point x="195" y="329" type="curve" smooth="yes"/>
      <point x="95" y="324"/>
      <point x="20" y="212"/>
      <point x="20" y="127" type="curve" smooth="yes"/>
      <point x="20" y="27"/>
      <point x="94" y="-5"/>
    </contour>
    <contour>
      <point x="109" y="146" type="curve"/>
      <point x="109" y="202"/>
      <point x="155" y="251"/>
      <point x="197" y="251" type="curve" smooth="yes"/>
      <point x="211" y="251"/>
      <point x="222" y="247"/>
      <point x="220" y="228" type="curve" smooth="yes"/>
      <point x="217" y="197"/>
      <point x="149" y="156"/>
    </contour>
    <contour>
      <point x="241" y="20" type="move" name="ogonek"/>
    </contour>
    <contour>
      <point x="217" y="343" type="move" name="top"/>
    </contour>
    <contour>
      <point x="163" y="0" type="move" name="bot"/>
    </contour>
  </outline>
</glyph>
<glyph name="h" format="1">
  <advance width="391.988"/>
  <unicode hex="0068"/>
  <outline>
    <contour>
      <point x="74" y="0" type="curve" smooth="yes"/>
      <point x="109" y="-2"/>
      <point x="112" y="15"/>
      <point x="120" y="43" type="curve" smooth="yes"/>
      <point x="136" y="104"/>
      <point x="240" y="230"/>
      <point x="265" y="225" type="curve" smooth="yes"/>
      <point x="284" y="221"/>
      <point x="218" y="113"/>
      <point x="215" y="54" type="curve" smooth="yes"/>
      <point x="213" y="10"/>
      <point x="243" y="-8"/>
      <point x="283" y="-7" type="curve" smooth="yes"/>
      <point x="335" y="-6"/>
      <point x="405" y="24"/>
      <point x="451" y="65" type="curve" smooth="yes"/>
      <point x="468" y="80"/>
      <point x="475" y="95"/>
      <point x="474" y="109" type="curve" smooth="yes"/>
      <point x="476" y="150"/>
      <point x="461" y="164"/>
      <point x="438" y="153" type="curve" smooth="yes"/>
      <point x="431" y="150"/>
      <point x="334" y="77"/>
      <point x="315" y="77" type="curve" smooth="yes"/>
      <point x="309" y="77"/>
      <point x="304" y="80"/>
      <point x="304" y="88" type="curve" smooth="yes"/>
      <point x="303" y="108"/>
      <point x="357" y="196"/>
      <point x="383" y="281" type="curve" smooth="yes"/>
      <point x="392" y="314"/>
      <point x="362" y="332"/>
      <point x="323" y="332" type="curve" smooth="yes"/>
      <point x="283" y="332"/>
      <point x="182" y="278"/>
      <point x="126" y="165" type="curve"/>
      <point x="154" y="284" type="line"/>
      <point x="333" y="420"/>
      <point x="385" y="516"/>
      <point x="397" y="596" type="curve"/>
      <point x="401" y="651"/>
      <point x="370" y="690"/>
      <point x="316" y="690" type="curve" smooth="yes"/>
      <point x="139" y="690"/>
      <point x="57" y="314"/>
      <point x="42" y="119" type="curve" smooth="yes"/>
      <point x="38" y="85"/>
      <point x="30" y="4"/>
    </contour>
    <contour>
      <point x="163" y="354" type="curve"/>
      <point x="172" y="396"/>
      <point x="223" y="607"/>
      <point x="295" y="591" type="curve" smooth="yes"/>
      <point x="333" y="578"/>
      <point x="267" y="460"/>
    </contour>
  </outline>
</glyph>
<glyph name="k" format="1">
  <advance width="440"/>
  <unicode hex="006B"/>
  <outline>
    <contour>
      <point x="340" y="-9" type="curve" smooth="yes"/>
      <point x="412" y="-9"/>
      <point x="489" y="63"/>
      <point x="503" y="88" type="curve" smooth="yes"/>
      <point x="524" y="118"/>
      <point x="476" y="175"/>
      <point x="455" y="132" type="curve" smooth="yes"/>
      <point x="402" y="59"/>
      <point x="371" y="69"/>
      <point x="370" y="61" type="curve" smooth="yes"/>
      <point x="330" y="55"/>
      <point x="317" y="59"/>
      <point x="322" y="81" type="curve" smooth="yes"/>
      <point x="335" y="148"/>
      <point x="438" y="153"/>
      <point x="454" y="238" type="curve" smooth="yes"/>
      <point x="463" y="285"/>
      <point x="440" y="316"/>
      <point x="393" y="318" type="curve" smooth="yes"/>
      <point x="290" y="319"/>
      <point x="185" y="201"/>
      <point x="125" y="79" type="curve"/>
      <point x="125" y="86"/>
      <point x="138" y="188"/>
      <point x="143" y="206" type="curve"/>
      <point x="158" y="224"/>
      <point x="387" y="459"/>
      <point x="387" y="586" type="curve" smooth="yes"/>
      <point x="387" y="633"/>
      <point x="362" y="663"/>
      <point x="310" y="663" type="curve" smooth="yes"/>
      <point x="59" y="663"/>
      <point x="34" y="114"/>
      <point x="44" y="59" type="curve" smooth="yes"/>
      <point x="44" y="69"/>
      <point x="47" y="-5"/>
      <point x="87" y="-5" type="curve" smooth="yes"/>
      <point x="197" y="-5"/>
      <point x="244" y="214"/>
      <point x="355" y="210" type="curve" smooth="yes"/>
      <point x="356" y="208"/>
      <point x="353" y="207"/>
      <point x="353" y="206" type="curve" smooth="yes"/>
      <point x="346" y="172"/>
      <point x="235" y="149"/>
      <point x="250" y="64" type="curve" smooth="yes"/>
      <point x="259" y="9"/>
      <point x="313" y="-9"/>
    </contour>
    <contour>
      <point x="161" y="318" type="curve"/>
      <point x="171" y="394"/>
      <point x="227" y="565"/>
      <point x="283" y="564" type="curve" smooth="yes"/>
      <point x="292" y="564"/>
      <point x="295" y="561"/>
      <point x="295" y="550" type="curve" smooth="yes"/>
      <point x="295" y="465"/>
      <point x="240" y="426"/>
    </contour>
    <contour>
      <point x="331" y="653" type="move" name="top"/>
    </contour>
  </outline>
</glyph>
<glyph name="m" format="1">
  <advance width="489"/>
  <unicode hex="006D"/>
  <outline>
    <contour>
      <point x="604" y="100" type="curve" smooth="yes"/>
      <point x="611" y="113"/>
      <point x="572" y="151"/>
      <point x="556" y="131" type="curve" smooth="yes"/>
      <point x="523" y="91"/>
      <point x="497" y="69"/>
      <point x="474" y="62" type="curve" smooth="yes"/>
      <point x="445" y="53"/>
      <point x="434" y="71"/>
      <point x="434" y="97" type="curve" smooth="yes"/>
      <point x="433" y="152"/>
      <point x="462" y="226"/>
      <point x="482" y="298" type="curve" smooth="yes"/>
      <point x="487" y="316"/>
      <point x="471" y="333"/>
      <point x="441" y="333" type="curve" smooth="yes"/>
      <point x="406" y="333"/>
      <point x="347" y="304"/>
      <point x="279" y="152" type="curve"/>
      <point x="290" y="206"/>
      <point x="304" y="269"/>
      <point x="308" y="295" type="curve" smooth="yes"/>
      <point x="312" y="321"/>
      <point x="283" y="335"/>
      <point x="265" y="335" type="curve" smooth="yes"/>
      <point x="230" y="335"/>
      <point x="172" y="287"/>
      <point x="114" y="143" type="curve"/>
      <point x="114" y="186"/>
      <point x="136" y="274"/>
      <point x="143" y="297" type="curve" smooth="yes"/>
      <point x="148" y="317"/>
      <point x="130" y="331"/>
      <point x="111" y="330" type="curve" smooth="yes"/>
      <point x="88" y="330"/>
      <point x="76" y="310"/>
      <point x="73" y="303" type="curve" smooth="yes"/>
      <point x="46" y="225"/>
      <point x="30" y="125"/>
      <point x="37" y="77" type="curve" smooth="yes"/>
      <point x="38" y="35"/>
      <point x="46" y="2"/>
      <point x="83" y="0" type="curve" smooth="yes"/>
      <point x="104" y="-1"/>
      <point x="121" y="5"/>
      <point x="145" y="55" type="curve" smooth="yes"/>
      <point x="182" y="132"/>
      <point x="193" y="165"/>
      <point x="243" y="233" type="curve"/>
      <point x="212" y="136"/>
      <point x="207" y="88"/>
      <point x="206" y="71" type="curve" smooth="yes"/>
      <point x="203" y="32"/>
      <point x="207" y="6"/>
      <point x="248" y="2" type="curve" smooth="yes"/>
      <point x="265" y="0"/>
      <point x="279" y="9"/>
      <point x="290" y="29" type="curve" smooth="yes"/>
      <point x="325" y="102"/>
      <point x="353" y="177"/>
      <point x="400" y="239" type="curve"/>
      <point x="362" y="156"/>
      <point x="358" y="108"/>
      <point x="357" y="77" type="curve" smooth="yes"/>
      <point x="355" y="35"/>
      <point x="376" y="-6"/>
      <point x="441" y="-2" type="curve" smooth="yes"/>
      <point x="493" y="1"/>
      <point x="563" y="43"/>
    </contour>
    <contour>
      <point x="336" y="343" type="move" name="top"/>
    </contour>
  </outline>
</glyph>
<glyph name="o" format="1">
  <advance width="346.997"/>
  <unicode hex="006F"/>
  <outline>
    <contour>
      <point x="168" y="-6" type="curve" smooth="yes"/>
      <point x="262" y="-9"/>
      <point x="299" y="62"/>
      <point x="317" y="110" type="curve"/>
      <point x="399" y="137"/>
      <point x="440" y="167"/>
      <point x="462" y="196" type="curve" smooth="yes"/>
      <point x="476" y="214"/>
      <point x="443" y="260"/>
      <point x="421" y="237" type="curve" smooth="yes"/>
      <point x="404" y="220"/>
      <point x="368" y="194"/>
      <point x="328" y="180" type="curve"/>
      <point x="343" y="259"/>
      <point x="303" y="328"/>
      <point x="227" y="330" type="curve" smooth="yes"/>
      <point x="122" y="333"/>
      <point x="44" y="236"/>
      <point x="44" y="126" type="curve" smooth="yes"/>
      <point x="44" y="51"/>
      <point x="96" y="-4"/>
    </contour>
    <contour>
      <point x="180" y="66" type="curve" smooth="yes"/>
      <point x="145" y="67"/>
      <point x="128" y="96"/>
      <point x="126" y="132" type="curve" smooth="yes"/>
      <point x="123" y="187"/>
      <point x="157" y="257"/>
      <point x="218" y="256" type="curve" smooth="yes"/>
      <point x="229" y="256"/>
      <point x="236" y="253"/>
      <point x="236" y="253" type="curve"/>
      <point x="194" y="200"/>
      <point x="195" y="147"/>
      <point x="246" y="128" type="curve"/>
      <point x="241" y="99"/>
      <point x="222" y="65"/>
    </contour>
    <contour>
      <point x="175" y="15" type="move" name="ogonek"/>
    </contour>
    <contour>
      <point x="257" y="343" type="move" name="top"/>
    </contour>
  </outline>
</glyph>
<glyph name="t" format="1">
  <advance width="268"/>
  <unicode hex="0074"/>
  <outline>
    <contour>
      <point x="36" y="116"/>
      <point x="57" y="-5"/>
      <point x="146" y="2" type="curve" smooth="yes"/>
      <point x="199" y="8"/>
      <point x="247" y="26"/>
      <point x="304" y="88" type="curve" smooth="yes"/>
      <point x="345" y="130"/>
      <point x="286" y="172"/>
      <point x="261" y="144" type="curve" smooth="yes"/>
      <point x="227" y="109"/>
      <point x="191" y="85"/>
      <point x="163" y="79" type="curve" smooth="yes"/>
      <point x="120" y="71"/>
      <point x="127" y="188"/>
      <point x="135" y="255" type="curve"/>
      <point x="228" y="306"/>
      <point x="348" y="420"/>
      <point x="357" y="551" type="curve" smooth="yes"/>
      <point x="361" y="590"/>
      <point x="340" y="630"/>
      <point x="283" y="631" type="curve" smooth="yes"/>
      <point x="151" y="632"/>
      <point x="62" y="375"/>
      <point x="48" y="224" type="curve" smooth="yes"/>
    </contour>
    <contour>
      <point x="-8" y="204"/>
      <point x="15" y="137"/>
      <point x="54" y="163" type="curve" smooth="yes"/>
      <point x="91" y="190"/>
      <point x="238" y="256"/>
      <point x="297" y="269" type="curve" smooth="yes"/>
      <point x="335" y="276"/>
      <point x="316" y="335"/>
      <point x="275" y="324" type="curve" smooth="yes"/>
      <point x="225" y="311"/>
      <point x="107" y="271"/>
      <point x="22" y="219" type="curve" smooth="yes"/>
    </contour>
    <contour>
      <point x="276" y="446"/>
      <point x="220" y="390"/>
      <point x="147" y="320" type="curve"/>
      <point x="163" y="421"/>
      <point x="215" y="535"/>
      <point x="268" y="535" type="curve" smooth="yes"/>
      <point x="273" y="535"/>
      <point x="276" y="532"/>
      <point x="276" y="527" type="curve" smooth="yes"/>
    </contour>
    <contour>
      <point x="359" y="551" type="move" name="caron.alt"/>
    </contour>
    <contour>
      <point x="310" y="552" type="move" name="top"/>
    </contour>
    <contour>
      <point x="144" y="395" type="move" name="mid"/>
    </contour>
    <contour>
      <point x="147" y="3" type="move" name="bot"/>
    </contour>
  </outline>
</glyph>
<glyph name="w" format="1">
  <advance width="583"/>
  <unicode hex="0077"/>
  <outline>
    <contour>
      <point x="374" y="-10" type="curve" smooth="yes"/>
      <point x="432" y="-7"/>
      <point x="513" y="51"/>
      <point x="558" y="144" type="curve" smooth="yes"/>
      <point x="624" y="273"/>
      <point x="584" y="384"/>
      <point x="503" y="386" type="curve"/>
      <point x="319" y="382"/>
      <point x="412" y="73"/>
      <point x="710" y="162" type="curve" smooth="yes"/>
      <point x="747" y="175"/>
      <point x="724" y="238"/>
      <point x="681" y="214" type="curve"/>
      <point x="458" y="178"/>
      <point x="465" y="318"/>
      <point x="500" y="318" type="curve" smooth="yes"/>
      <point x="534" y="318"/>
      <point x="535" y="255"/>
      <point x="482" y="174" type="curve"/>
      <point x="455" y="105"/>
      <point x="405" y="59"/>
      <point x="364" y="66" type="curve" smooth="yes"/>
      <point x="317" y="71"/>
      <point x="310" y="142"/>
      <point x="353" y="228" type="curve" smooth="yes"/>
      <point x="393" y="319"/>
      <point x="387" y="319"/>
      <point x="341" y="315" type="curve" smooth="yes"/>
      <point x="303" y="316"/>
      <point x="275" y="168"/>
      <point x="270" y="112" type="curve" smooth="yes"/>
      <point x="267" y="86"/>
      <point x="279" y="-18"/>
    </contour>
    <contour>
      <point x="186" y="-7" type="curve" smooth="yes"/>
      <point x="274" y="-2"/>
      <point x="304" y="99"/>
      <point x="352" y="204" type="curve"/>
      <point x="320" y="298" type="line"/>
      <point x="272" y="197" type="line"/>
      <point x="213" y="50"/>
      <point x="191" y="64"/>
      <point x="177" y="70" type="curve" smooth="yes"/>
      <point x="145" y="74"/>
      <point x="139" y="125"/>
      <point x="147" y="161" type="curve" smooth="yes"/>
      <point x="158" y="212"/>
      <point x="224" y="285"/>
      <point x="228" y="291" type="curve" smooth="yes"/>
      <point x="243" y="313"/>
      <point x="182" y="371"/>
      <point x="141" y="309" type="curve" smooth="yes"/>
      <point x="128" y="288"/>
      <point x="57" y="203"/>
      <point x="54" y="126" type="curve" smooth="yes"/>
      <point x="51" y="38"/>
      <point x="109" y="-12"/>
    </contour>
  </outline>
</glyph>
<glyph name="y" format="1">
  <advance width="346"/>
  <unicode hex="0079"/>
  <outline>
    <contour>
      <point x="61" y="-314" type="curve" smooth="yes"/>
      <point x="215" y="-314"/>
      <point x="256" y="-167"/>
      <point x="279" y="-47" type="curve"/>
      <point x="344" y="-11"/>
      <point x="445" y="44"/>
      <point x="498" y="82" type="curve" smooth="yes"/>
      <point x="556" y="120"/>
      <point x="509" y="177"/>
      <point x="476" y="154" type="curve" smooth="yes"/>
      <point x="445" y="132"/>
      <point x="328" y="59"/>
      <point x="293" y="36" type="curve"/>
      <point x="303" y="97"/>
      <point x="305" y="108"/>
      <point x="312" y="138" type="curve" smooth="yes"/>
      <point x="312" y="154"/>
      <point x="336" y="230"/>
      <point x="336" y="277" type="curve" smooth="yes"/>
      <point x="336" y="294"/>
      <point x="314" y="302"/>
      <point x="298" y="302" type="curve" smooth="yes"/>
      <point x="273" y="302"/>
      <point x="261" y="283"/>
      <point x="253" y="254" type="curve" smooth="yes"/>
      <point x="226" y="162" type="line"/>
      <point x="210" y="111"/>
      <point x="191" y="76"/>
      <point x="159" y="69" type="curve" smooth="yes"/>
      <point x="127" y="65"/>
      <point x="119" y="88"/>
      <point x="119" y="110" type="curve" smooth="yes"/>
      <point x="119" y="153"/>
      <point x="130" y="190"/>
      <point x="137" y="218" type="curve" smooth="yes"/>
      <point x="145" y="237"/>
      <point x="161" y="253"/>
      <point x="161" y="275" type="curve" smooth="yes"/>
      <point x="161" y="297"/>
      <point x="140" y="306"/>
      <point x="124" y="306" type="curve" smooth="yes"/>
      <point x="106" y="306"/>
      <point x="78" y="290"/>
      <point x="68" y="271" type="curve" smooth="yes"/>
      <point x="40" y="218"/>
      <point x="23" y="174"/>
      <point x="23" y="94" type="curve" smooth="yes"/>
      <point x="23" y="37"/>
      <point x="67" y="0"/>
      <point x="118" y="0" type="curve" smooth="yes"/>
      <point x="138" y="0"/>
      <point x="196" y="22"/>
      <point x="228" y="77" type="curve"/>
      <point x="195" y="-11" type="line"/>
      <point x="143" y="-49"/>
      <point x="82" y="-80"/>
      <point x="40" y="-128" type="curve" smooth="yes"/>
      <point x="13" y="-160"/>
      <point x="-24" y="-192"/>
      <point x="-28" y="-240" type="curve" smooth="yes"/>
      <point x="-31" y="-299"/>
      <point x="4" y="-314"/>
    </contour>
    <contour>
      <point x="66" y="-244" type="curve" smooth="yes"/>
      <point x="61" y="-244"/>
      <point x="61" y="-237"/>
      <point x="61" y="-236" type="curve" smooth="yes"/>
      <point x="61" y="-207"/>
      <point x="151" y="-106"/>
      <point x="178" y="-92" type="curve"/>
      <point x="165" y="-157"/>
      <point x="118" y="-253"/>
    </contour>
  </outline>
</glyph>
<glyph name="braceleft" format="1">
  <advance width="394"/>
  <unicode hex="007B"/>
  <outline>
    <contour>
      <point x="377" y="-103" type="curve" smooth="yes"/>
      <point x="407" y="-99"/>
      <point x="405" y="-34"/>
      <point x="368" y="-36" type="curve" smooth="yes"/>
      <point x="270" y="-42"/>
      <point x="278" y="-24"/>
      <point x="278" y="34" type="curve" smooth="yes"/>
      <point x="278" y="83"/>
      <point x="293" y="139"/>
      <point x="293" y="193" type="curve" smooth="yes"/>
      <point x="293" y="256"/>
      <point x="234" y="286"/>
      <point x="179" y="292" type="curve"/>
      <point x="176" y="264" type="line"/>
      <point x="244" y="262"/>
      <point x="308" y="287"/>
      <point x="312" y="365" type="curve" smooth="yes"/>
      <point x="321" y="533"/>
      <point x="329" y="571"/>
      <point x="368" y="578" type="curve"/>
      <point x="400" y="582"/>
      <point x="432" y="570"/>
      <point x="450" y="563" type="curve" smooth="yes"/>
      <point x="488" y="551"/>
      <point x="499" y="606"/>
      <point x="477" y="621" type="curve" smooth="yes"/>
      <point x="450" y="636"/>
      <point x="403" y="652"/>
      <point x="355" y="648" type="curve" smooth="yes"/>
      <point x="259" y="641"/>
      <point x="234" y="559"/>
      <point x="224" y="386" type="curve" smooth="yes"/>
      <point x="222" y="337"/>
      <point x="204" y="317"/>
      <point x="153" y="321" type="curve" smooth="yes"/>
      <point x="129" y="323"/>
      <point x="113" y="312"/>
      <point x="109" y="284" type="curve" smooth="yes"/>
      <point x="107" y="260"/>
      <point x="119" y="240"/>
      <point x="139" y="238" type="curve" smooth="yes"/>
      <point x="195" y="234"/>
      <point x="203" y="220"/>
      <point x="203" y="185" type="curve" smooth="yes"/>
      <point x="203" y="129"/>
      <point x="188" y="79"/>
      <point x="188" y="27" type="curve" smooth="yes"/>
      <point x="188" y="-70"/>
      <point x="237" y="-118"/>
    </contour>
  </outline>
</glyph>
<glyph name="dieresis" format="1">
  <advance width="350"/>
  <unicode hex="00A8"/>
  <outline>
    <contour>
      <point x="7" y="399" type="curve" smooth="yes"/>
      <point x="39" y="399"/>
      <point x="58" y="417"/>
      <point x="58" y="447" type="curve" smooth="yes"/>
      <point x="58" y="471"/>
      <point x="42" y="485"/>
      <point x="14" y="485" type="curve" smooth="yes"/>
      <point x="-17" y="485"/>
      <point x="-35" y="467"/>
      <point x="-35" y="437" type="curve" smooth="yes"/>
      <point x="-35" y="413"/>
      <point x="-19" y="399"/>
    </contour>
    <contour>
      <point x="191" y="399" type="curve" smooth="yes"/>
      <point x="224" y="399"/>
      <point x="243" y="417"/>
      <point x="243" y="447" type="curve" smooth="yes"/>
      <point x="243" y="471"/>
      <point x="226" y="485"/>
      <point x="198" y="485" type="curve" smooth="yes"/>
      <point x="167" y="485"/>
      <point x="149" y="467"/>
      <point x="149" y="437" type="curve" smooth="yes"/>
      <point x="149" y="413"/>
      <point x="165" y="399"/>
    </contour>
    <contour>
      <point x="102" y="343" type="move" name="_top"/>
    </contour>
  </outline>
</glyph>
<glyph name="registered" format="1">
  <advance width="636"/>
  <unicode hex="00AE"/>
  <outline>
    <contour>
      <point x="334" y="134" type="curve" smooth="yes"/>
      <point x="339" y="94"/>
      <point x="413" y="96"/>
      <point x="407" y="140" type="curve" smooth="yes"/>
      <point x="389" y="300" type="line"/>
      <point x="343" y="263" type="line"/>
      <point x="416" y="269"/>
      <point x="464" y="306"/>
      <point x="463" y="359" type="curve" smooth="yes"/>
      <point x="461" y="410"/>
      <point x="417" y="431"/>
      <point x="363" y="431" type="curve" smooth="yes"/>
      <point x="340" y="431"/>
      <point x="292" y="426"/>
      <point x="274" y="427" type="curve"/>
      <point x="237" y="314" type="line"/>
      <point x="229" y="314"/>
      <point x="233" y="315"/>
      <point x="224" y="315" type="curve" smooth="yes"/>
      <point x="217" y="314"/>
      <point x="213" y="305"/>
      <point x="213" y="299" type="curve" smooth="yes"/>
      <point x="213" y="289"/>
      <point x="219" y="286"/>
      <point x="227" y="279" type="curve"/>
      <point x="196" y="160" type="line"/>
      <point x="185" y="122"/>
      <point x="250" y="97"/>
      <point x="264" y="149" type="curve" smooth="yes"/>
      <point x="292" y="263" type="line"/>
      <point x="282" y="264"/>
      <point x="326" y="265"/>
      <point x="318" y="265" type="curve"/>
      <point x="321" y="255"/>
      <point x="328" y="175"/>
    </contour>
    <contour>
      <point x="325" y="75" type="curve" smooth="yes"/>
      <point x="210" y="75"/>
      <point x="125" y="131"/>
      <point x="125" y="248" type="curve" smooth="yes"/>
      <point x="125" y="371"/>
      <point x="204" y="471"/>
      <point x="384" y="467" type="curve" smooth="yes"/>
      <point x="482" y="466"/>
      <point x="537" y="414"/>
      <point x="537" y="319" type="curve" smooth="yes"/>
      <point x="537" y="186"/>
      <point x="458" y="75"/>
    </contour>
    <contour>
      <point x="327" y="9" type="curve" smooth="yes"/>
      <point x="463" y="9"/>
      <point x="616" y="111"/>
      <point x="616" y="314" type="curve" smooth="yes"/>
      <point x="616" y="459"/>
      <point x="520" y="528"/>
      <point x="377" y="533" type="curve" smooth="yes"/>
      <point x="196" y="539"/>
      <point x="54" y="433"/>
      <point x="54" y="248" type="curve" smooth="yes"/>
      <point x="54" y="97"/>
      <point x="169" y="9"/>
    </contour>
    <contour>
      <point x="308" y="309" type="curve"/>
      <point x="326" y="378" type="line"/>
      <point x="341" y="378" type="line"/>
      <point x="380" y="378"/>
      <point x="395" y="369"/>
      <point x="397" y="352" type="curve" smooth="yes"/>
      <point x="400" y="328"/>
      <point x="337" y="305"/>
    </contour>
  </outline>
</glyph>
<glyph name="macron" format="1">
  <advance width="205"/>
  <unicode hex="00AF"/>
  <outline>
    <contour>
      <point x="-26" y="597" type="curve" smooth="yes"/>
      <point x="46" y="613"/>
      <point x="147" y="606"/>
      <point x="204" y="606" type="curve" smooth="yes"/>
      <point x="233" y="606"/>
      <point x="242" y="607"/>
      <point x="247" y="624" type="curve" smooth="yes"/>
      <point x="254" y="653"/>
      <point x="234" y="662"/>
      <point x="218" y="669" type="curve" smooth="yes"/>
      <point x="172" y="687"/>
      <point x="58" y="694"/>
      <point x="-17" y="683" type="curve" smooth="yes"/>
      <point x="-63" y="676"/>
      <point x="-68" y="647"/>
      <point x="-66" y="629" type="curve" smooth="yes"/>
      <point x="-66" y="610"/>
      <point x="-49" y="590"/>
    </contour>
    <contour>
      <point x="86" y="514" type="move" name="_top"/>
    </contour>
  </outline>
</glyph>
<glyph name="acute" format="1">
  <advance width="208"/>
  <unicode hex="00B4"/>
  <outline>
    <contour>
      <point x="163" y="472" type="curve" smooth="yes"/>
      <point x="273" y="598" type="line"/>
      <point x="320" y="649"/>
      <point x="224" y="712"/>
      <point x="195" y="654" type="curve" smooth="yes"/>
      <point x="125" y="502" type="line"/>
      <point x="103" y="461"/>
      <point x="138" y="446"/>
    </contour>
    <contour>
      <point x="111" y="343" type="move" name="_top"/>
    </contour>
  </outline>
</glyph>
<glyph name="periodcentered" format="1">
  <advance width="240"/>
  <unicode hex="00B7"/>
  <outline>
    <contour>
      <point x="236" y="-13" type="curve" smooth="yes"/>
      <point x="284" y="-13"/>
      <point x="314" y="19"/>
      <point x="314" y="66" type="curve" smooth="yes"/>
      <point x="314" y="111"/>
      <point x="287" y="134"/>
      <point x="243" y="134" type="curve" smooth="yes"/>
      <point x="194" y="134"/>
      <point x="168" y="101"/>
      <point x="168" y="54" type="curve" smooth="yes"/>
      <point x="168" y="11"/>
      <point x="193" y="-13"/>
    </contour>
    <contour>
      <point x="-59" y="125" type="move" name="_mid"/>
    </contour>
  </outline>
</glyph>
<glyph name="onehalf" format="1">
  <advance width="1017"/>
  <unicode hex="00BD"/>
  <outline>
    <contour>
      <point x="751" y="2" type="curve" smooth="yes"/>
      <point x="791" y="2"/>
      <point x="823" y="20"/>
      <point x="849" y="42" type="curve"/>
      <point x="871" y="24"/>
      <point x="902" y="0"/>
      <point x="943" y="0" type="curve" smooth="yes"/>
      <point x="991" y="0"/>
      <point x="1008" y="46"/>
      <point x="1008" y="83" type="curve" smooth="yes"/>
      <point x="1008" y="96"/>
      <point x="1007" y="110"/>
      <point x="993" y="111" type="curve" smooth="yes"/>
      <point x="977" y="116"/>
      <point x="975" y="95"/>
      <point x="957" y="95" type="curve" smooth="yes"/>
      <point x="938" y="95"/>
      <point x="921" y="94"/>
      <point x="906" y="102" type="curve"/>
      <point x="964" y="165"/>
      <point x="996" y="238"/>
      <point x="1000" y="297" type="curve" smooth="yes"/>
      <point x="1003" y="467"/>
      <point x="896" y="505"/>
      <point x="823" y="501" type="curve" smooth="yes"/>
      <point x="723" y="495"/>
      <point x="657" y="444"/>
      <point x="657" y="339" type="curve" smooth="yes"/>
      <point x="657" y="293"/>
      <point x="666" y="266"/>
      <point x="714" y="260" type="curve" smooth="yes"/>
      <point x="768" y="254"/>
      <point x="761" y="282"/>
      <point x="749" y="342" type="curve" smooth="yes"/>
      <point x="737" y="388"/>
      <point x="790" y="423"/>
      <point x="825" y="425" type="curve" smooth="yes"/>
      <point x="883" y="427"/>
      <point x="910" y="375"/>
      <point x="904" y="276" type="curve" smooth="yes"/>
      <point x="896" y="250"/>
      <point x="890" y="196"/>
      <point x="841" y="151" type="curve"/>
      <point x="808" y="174"/>
      <point x="776" y="186"/>
      <point x="731" y="186" type="curve" smooth="yes"/>
      <point x="678" y="186"/>
      <point x="644" y="154"/>
      <point x="644" y="100" type="curve" smooth="yes"/>
      <point x="644" y="41"/>
      <point x="694" y="2"/>
    </contour>
    <contour>
      <point x="737" y="78" type="curve" smooth="yes"/>
      <point x="723" y="78"/>
      <point x="711" y="85"/>
      <point x="711" y="96" type="curve" smooth="yes"/>
      <point x="711" y="105"/>
      <point x="717" y="110"/>
      <point x="730" y="110" type="curve" smooth="yes"/>
      <point x="744" y="110"/>
      <point x="777" y="111"/>
      <point x="791" y="102" type="curve"/>
      <point x="769" y="85"/>
      <point x="747" y="78"/>
    </contour>
    <contour>
      <point x="406" y="-29" type="curve" smooth="yes"/>
      <point x="660" y="575" type="line"/>
      <point x="680" y="619"/>
      <point x="611" y="661"/>
      <point x="585" y="601" type="curve" smooth="yes"/>
      <point x="331" y="15" type="line"/>
      <point x="309" y="-35"/>
      <point x="387" y="-74"/>
    </contour>
    <contour>
      <point x="235" y="217" type="curve" smooth="yes"/>
      <point x="271" y="375"/>
      <point x="316" y="622"/>
      <point x="322" y="653" type="curve" smooth="yes"/>
      <point x="327" y="680"/>
      <point x="323" y="701"/>
      <point x="303" y="697" type="curve" smooth="yes"/>
      <point x="268" y="690"/>
      <point x="157" y="670"/>
      <point x="129" y="662" type="curve" smooth="yes"/>
      <point x="105" y="654"/>
      <point x="109" y="570"/>
      <point x="134" y="577" type="curve" smooth="yes"/>
      <point x="147" y="579"/>
      <point x="202" y="596"/>
      <point x="218" y="602" type="curve"/>
      <point x="198" y="517"/>
      <point x="169" y="386"/>
      <point x="137" y="228" type="curve" smooth="yes"/>
      <point x="128" y="178"/>
      <point x="228" y="181"/>
    </contour>
  </outline>
</glyph>
<glyph name="multiply" format="1">
  <advance width="438"/>
  <unicode hex="00D7"/>
  <outline>
    <contour>
      <point x="321" y="54" type="curve" smooth="yes"/>
      <point x="340" y="54"/>
      <point x="354" y="67"/>
      <point x="354" y="86" type="curve" smooth="yes"/>
      <point x="354" y="102"/>
      <point x="346" y="114"/>
      <point x="336" y="124" type="curve"/>
      <point x="289" y="175" type="line"/>
      <point x="338" y="227" type="line"/>
      <point x="345" y="236"/>
      <point x="352" y="246"/>
      <point x="352" y="260" type="curve" smooth="yes"/>
      <point x="352" y="280"/>
      <point x="338" y="298"/>
      <point x="318" y="298" type="curve" smooth="yes"/>
      <point x="307" y="298"/>
      <point x="298" y="291"/>
      <point x="290" y="285" type="curve"/>
      <point x="236" y="224" type="line"/>
      <point x="180" y="284" type="line"/>
      <point x="171" y="294"/>
      <point x="162" y="297"/>
      <point x="152" y="297" type="curve" smooth="yes"/>
      <point x="132" y="297"/>
      <point x="119" y="279"/>
      <point x="119" y="259" type="curve" smooth="yes"/>
      <point x="119" y="245"/>
      <point x="125" y="234"/>
      <point x="132" y="227" type="curve" smooth="yes"/>
      <point x="184" y="175" type="line"/>
      <point x="134" y="125" type="line"/>
      <point x="124" y="116"/>
      <point x="116" y="103"/>
      <point x="116" y="87" type="curve" smooth="yes"/>
      <point x="116" y="68"/>
      <point x="130" y="54"/>
      <point x="149" y="54" type="curve" smooth="yes"/>
      <point x="165" y="54"/>
      <point x="177" y="63"/>
      <point x="186" y="73" type="curve" smooth="yes"/>
      <point x="236" y="126" type="line"/>
      <point x="286" y="71" type="line"/>
      <point x="294" y="60"/>
      <point x="306" y="54"/>
    </contour>
  </outline>
</glyph>
<glyph name="Oslash" format="1">
  <advance width="678"/>
  <unicode hex="00D8"/>
  <outline>
    <contour>
      <point x="136" y="-201" type="curve" smooth="yes"/>
      <point x="711" y="702" type="line"/>
      <point x="734" y="733"/>
      <point x="687" y="751"/>
      <point x="674" y="725" type="curve"/>
      <point x="76" y="-158" type="line"/>
      <point x="47" y="-207"/>
      <point x="113" y="-236"/>
    </contour>
    <component base="O"/>
  </outline>
</glyph>
<glyph name="ae" format="1">
  <advance width="491"/>
  <unicode hex="00E6"/>
  <outline>
    <contour>
      <point x="477" y="93"/>
      <point x="412" y="73"/>
      <point x="369" y="74" type="curve" smooth="yes"/>
      <point x="338" y="74"/>
      <point x="309" y="88"/>
      <point x="302" y="120" type="curve"/>
      <point x="432" y="116"/>
      <point x="490" y="160"/>
      <point x="490" y="239" type="curve" smooth="yes"/>
      <point x="490" y="296"/>
      <point x="448" y="329"/>
      <point x="393" y="329" type="curve" smooth="yes"/>
      <point x="371" y="329"/>
      <point x="350" y="324"/>
      <point x="332" y="315" type="curve"/>
      <point x="331" y="323"/>
      <point x="327" y="337"/>
      <point x="296" y="337" type="curve" smooth="yes"/>
      <point x="168" y="337"/>
      <point x="16" y="275"/>
      <point x="6" y="117" type="curve"/>
      <point x="1" y="78"/>
      <point x="17" y="3"/>
      <point x="93" y="-4" type="curve" smooth="yes"/>
      <point x="127" y="-7"/>
      <point x="181" y="-5"/>
      <point x="223" y="73" type="curve"/>
      <point x="244" y="19"/>
      <point x="304" y="-3"/>
      <point x="351" y="-6" type="curve" smooth="yes"/>
      <point x="435" y="-9"/>
      <point x="522" y="41"/>
      <point x="555" y="86" type="curve" smooth="yes"/>
      <point x="582" y="122"/>
      <point x="538" y="152"/>
      <point x="516" y="132" type="curve"/>
    </contour>
    <contour>
      <point x="214" y="122"/>
      <point x="182" y="75"/>
      <point x="135" y="82" type="curve" smooth="yes"/>
      <point x="63" y="93"/>
      <point x="137" y="261"/>
      <point x="271" y="261" type="curve"/>
      <point x="244" y="240"/>
      <point x="225" y="190"/>
      <point x="217" y="141" type="curve" smooth="yes"/>
    </contour>
    <contour>
      <point x="413" y="251"/>
      <point x="423" y="246"/>
      <point x="420" y="223" type="curve"/>
      <point x="414" y="192"/>
      <point x="334" y="165"/>
      <point x="308" y="168" type="curve"/>
      <point x="318" y="205"/>
      <point x="356" y="251"/>
      <point x="397" y="251" type="curve" smooth="yes"/>
    </contour>
    <contour>
      <point x="363" y="0" type="move" name="ogonek"/>
    </contour>
    <contour>
      <point x="354" y="343" type="move" name="top"/>
    </contour>
  </outline>
</glyph>
<glyph name="napostrophe" format="1">
  <advance width="338"/>
  <unicode hex="0149"/>
  <outline>
    <component base="n"/>
    <component base="caron.alt"/>
    <contour>
      <point x="103" y="343" type="move" name="caron.alt"/>
    </contour>
  </outline>
</glyph>
<glyph name="Eng" format="1">
  <advance width="538"/>
  <unicode hex="014A"/>
  <outline>
    <contour>
      <point x="102" y="-320" type="curve" smooth="yes"/>
      <point x="164" y="-324"/>
      <point x="298" y="-249"/>
      <point x="392" y="-24" type="curve"/>
      <point x="454" y="13"/>
      <point x="510" y="14"/>
      <point x="561" y="44" type="curve" smooth="yes"/>
      <point x="619" y="72"/>
      <point x="610" y="115"/>
      <point x="573" y="104" type="curve" smooth="yes"/>
      <point x="555" y="106"/>
      <point x="459" y="73"/>
      <point x="405" y="43" type="curve"/>
      <point x="501" y="326"/>
      <point x="576" y="471"/>
      <point x="573" y="572" type="curve" smooth="yes"/>
      <point x="571" y="629"/>
      <point x="535" y="669"/>
      <point x="470" y="673" type="curve" smooth="yes"/>
      <point x="273" y="685"/>
      <point x="196" y="504"/>
      <point x="152" y="372" type="curve"/>
      <point x="178" y="467"/>
      <point x="198" y="557"/>
      <point x="199" y="596" type="curve" smooth="yes"/>
      <point x="200" y="650"/>
      <point x="138" y="680"/>
      <point x="90" y="671" type="curve" smooth="yes"/>
      <point x="-7" y="657"/>
      <point x="-77" y="584"/>
      <point x="-110" y="504" type="curve" smooth="yes"/>
      <point x="-135" y="445"/>
      <point x="-34" y="409"/>
      <point x="-41" y="412" type="curve" smooth="yes"/>
      <point x="-33" y="461"/>
      <point x="42" y="591"/>
      <point x="86" y="589" type="curve" smooth="yes"/>
      <point x="111" y="589"/>
      <point x="106" y="527"/>
      <point x="105" y="527" type="curve" smooth="yes"/>
      <point x="104" y="403"/>
      <point x="-34" y="95"/>
      <point x="-92" y="-41" type="curve" smooth="yes"/>
      <point x="-89" y="-33"/>
      <point x="-56" y="-58"/>
      <point x="-20" y="-58" type="curve" smooth="yes"/>
      <point x="36" y="-58"/>
      <point x="37" y="-10"/>
      <point x="56" y="30" type="curve" smooth="yes"/>
      <point x="187" y="310"/>
      <point x="260" y="562"/>
      <point x="426" y="564" type="curve" smooth="yes"/>
      <point x="447" y="565"/>
      <point x="464" y="550"/>
      <point x="466" y="530" type="curve" smooth="yes"/>
      <point x="468" y="465"/>
      <point x="415" y="337"/>
      <point x="295" y="-2" type="curve"/>
      <point x="104" y="-95"/>
      <point x="44" y="-213"/>
      <point x="39" y="-270" type="curve" smooth="yes"/>
      <point x="37" y="-300"/>
      <point x="59" y="-317"/>
    </contour>
    <contour>
      <point x="112" y="-261" type="curve" smooth="yes"/>
      <point x="105" y="-262"/>
      <point x="98" y="-261"/>
      <point x="99" y="-249" type="curve" smooth="yes"/>
      <point x="98" y="-223"/>
      <point x="137" y="-130"/>
      <point x="278" y="-62" type="curve"/>
      <point x="252" y="-129"/>
      <point x="172" y="-258"/>
    </contour>
  </outline>
</glyph>
<glyph name="OE" format="1">
  <advance width="1076"/>
  <unicode hex="0152"/>
  <outline>
    <contour>
      <point x="328" y="-103" type="curve" smooth="yes"/>
      <point x="464" y="-106"/>
      <point x="563" y="-36"/>
      <point x="587" y="16" type="curve"/>
      <point x="597" y="-49"/>
      <point x="648" y="-104"/>
      <point x="758" y="-104" type="curve" smooth="yes"/>
      <point x="887" y="-104"/>
      <point x="1105" y="-12"/>
      <point x="1182" y="69" type="curve" smooth="yes"/>
      <point x="1189" y="78"/>
      <point x="1193" y="88"/>
      <point x="1193" y="99" type="curve" smooth="yes"/>
      <point x="1193" y="124"/>
      <point x="1176" y="153"/>
      <point x="1152" y="153" type="curve" smooth="yes"/>
      <point x="1141" y="153"/>
      <point x="1132" y="147"/>
      <point x="1120" y="136" type="curve" smooth="yes"/>
      <point x="1056" y="67"/>
      <point x="875" y="-1"/>
      <point x="760" y="-1" type="curve" smooth="yes"/>
      <point x="658" y="-1"/>
      <point x="656" y="76"/>
      <point x="652" y="98" type="curve"/>
      <point x="683" y="143"/>
      <point x="703" y="263"/>
      <point x="695" y="273" type="curve"/>
      <point x="742" y="270"/>
      <point x="748" y="265"/>
      <point x="813" y="265" type="curve" smooth="yes"/>
      <point x="857" y="265"/>
      <point x="880" y="298"/>
      <point x="880" y="325" type="curve" smooth="yes"/>
      <point x="880" y="345"/>
      <point x="866" y="374"/>
      <point x="829" y="372" type="curve" smooth="yes"/>
      <point x="697" y="372" type="line"/>
      <point x="693" y="392"/>
      <point x="685" y="430"/>
      <point x="679" y="453" type="curve"/>
      <point x="665" y="547"/>
      <point x="796" y="637"/>
      <point x="932" y="637" type="curve" smooth="yes"/>
      <point x="978" y="637"/>
      <point x="1017" y="624"/>
      <point x="1047" y="598" type="curve"/>
      <point x="1055" y="614"/>
      <point x="1022" y="527"/>
      <point x="1022" y="544" type="curve"/>
      <point x="1000" y="502"/>
      <point x="1002" y="483"/>
      <point x="1033" y="483" type="curve" smooth="yes"/>
      <point x="1056" y="483"/>
      <point x="1136" y="475"/>
      <point x="1138" y="567" type="curve" smooth="yes"/>
      <point x="1142" y="671"/>
      <point x="1050" y="717"/>
      <point x="943" y="717" type="curve" smooth="yes"/>
      <point x="818" y="717"/>
      <point x="654" y="655"/>
      <point x="616" y="545" type="curve"/>
      <point x="610" y="591"/>
      <point x="549" y="658"/>
      <point x="432" y="658" type="curve" smooth="yes"/>
      <point x="191" y="658"/>
      <point x="81" y="451"/>
      <point x="77" y="223" type="curve" smooth="yes"/>
      <point x="72" y="94"/>
      <point x="151" y="-96"/>
    </contour>
    <contour>
      <point x="342" y="-4" type="curve" smooth="yes"/>
      <point x="242" y="2"/>
      <point x="188" y="124"/>
      <point x="186" y="227" type="curve" smooth="yes"/>
      <point x="184" y="337"/>
      <point x="242" y="562"/>
      <point x="436" y="562" type="curve" smooth="yes"/>
      <point x="537" y="562"/>
      <point x="589" y="444"/>
      <point x="587" y="309" type="curve" smooth="yes"/>
      <point x="583" y="100"/>
      <point x="532" y="-14"/>
    </contour>
  </outline>
</glyph>
<glyph name="circumflex" format="1">
  <advance width="295"/>
  <unicode hex="02C6"/>
  <outline>
    <contour>
      <point x="186" y="421" type="curve" smooth="yes"/>
      <point x="198" y="378"/>
      <point x="265" y="405"/>
      <point x="255" y="437" type="curve" smooth="yes"/>
      <point x="221" y="545" type="line" smooth="yes"/>
      <point x="203" y="602"/>
      <point x="205" y="623"/>
      <point x="158" y="625" type="curve" smooth="yes"/>
      <point x="101" y="628"/>
      <point x="94" y="606"/>
      <point x="79" y="572" type="curve" smooth="yes"/>
      <point x="35" y="473" type="line" smooth="yes"/>
      <point x="28" y="457"/>
      <point x="27" y="445"/>
      <point x="28" y="437" type="curve" smooth="yes"/>
      <point x="33" y="410"/>
      <point x="75" y="403"/>
      <point x="87" y="427" type="curve" smooth="yes"/>
      <point x="91" y="435"/>
      <point x="142" y="548"/>
      <point x="148" y="560" type="curve"/>
      <point x="151" y="546"/>
      <point x="182" y="435"/>
    </contour>
    <contour>
      <point x="129" y="343" type="move" name="_top"/>
    </contour>
  </outline>
</glyph>
<glyph name="dotaccent" format="1">
  <advance width="240"/>
  <unicode hex="02D9"/>
  <outline>
    <contour>
      <point x="114" y="459" type="curve" smooth="yes"/>
      <point x="147" y="459"/>
      <point x="167" y="479"/>
      <point x="167" y="513" type="curve" smooth="yes"/>
      <point x="167" y="541"/>
      <point x="149" y="557"/>
      <point x="119" y="557" type="curve" smooth="yes"/>
      <point x="86" y="557"/>
      <point x="67" y="538"/>
      <point x="67" y="505" type="curve" smooth="yes"/>
      <point x="67" y="476"/>
      <point x="84" y="459"/>
    </contour>
    <contour>
      <point x="104" y="343" type="move" name="_top"/>
    </contour>
  </outline>
</glyph>
<glyph name="ogonek" format="1">
  <advance width="183"/>
  <unicode hex="02DB"/>
  <outline>
    <contour>
      <point x="91" y="-157" type="curve" smooth="yes"/>
      <point x="112" y="-158"/>
      <point x="160" y="-156"/>
      <point x="193" y="-130" type="curve" smooth="yes"/>
      <point x="200" y="-124"/>
      <point x="200" y="-108"/>
      <point x="200" y="-98" type="curve" smooth="yes"/>
      <point x="200" y="-86"/>
      <point x="194" y="-64"/>
      <point x="186" y="-71" type="curve" smooth="yes"/>
      <point x="157" y="-90"/>
      <point x="137" y="-91"/>
      <point x="131" y="-92" type="curve" smooth="yes"/>
      <point x="118" y="-90"/>
      <point x="112" y="-85"/>
      <point x="110" y="-79" type="curve" smooth="yes"/>
      <point x="104" y="-41"/>
      <point x="149" y="3"/>
      <point x="156" y="11" type="curve"/>
      <point x="134" y="11" type="line"/>
      <point x="73" y="-16"/>
      <point x="37" y="-50"/>
      <point x="40" y="-100" type="curve" smooth="yes"/>
      <point x="41" y="-139"/>
      <point x="62" y="-156"/>
    </contour>
    <contour>
      <point x="127" y="0" type="move" name="_ogonek"/>
    </contour>
  </outline>
</glyph>
<glyph name="tilde" format="1">
  <advance width="328"/>
  <unicode hex="02DC"/>
  <outline>
    <contour>
      <point x="227" y="416" type="curve" smooth="yes"/>
      <point x="272" y="416"/>
      <point x="319" y="470"/>
      <point x="319" y="513" type="curve" smooth="yes"/>
      <point x="319" y="534"/>
      <point x="301" y="546"/>
      <point x="283" y="546" type="curve" smooth="yes"/>
      <point x="246" y="546"/>
      <point x="230" y="511"/>
      <point x="221" y="492" type="curve"/>
      <point x="206" y="505"/>
      <point x="194" y="514"/>
      <point x="184" y="522" type="curve" smooth="yes"/>
      <point x="164" y="538"/>
      <point x="147" y="557"/>
      <point x="112" y="557" type="curve" smooth="yes"/>
      <point x="66" y="557"/>
      <point x="19" y="503"/>
      <point x="19" y="460" type="curve" smooth="yes"/>
      <point x="19" y="439"/>
      <point x="37" y="427"/>
      <point x="56" y="427" type="curve" smooth="yes"/>
      <point x="90" y="427"/>
      <point x="108" y="460"/>
      <point x="118" y="480" type="curve"/>
      <point x="132" y="468"/>
      <point x="145" y="458"/>
      <point x="155" y="451" type="curve" smooth="yes"/>
      <point x="174" y="435"/>
      <point x="192" y="416"/>
    </contour>
    <contour>
      <point x="140" y="343" type="move" name="_top"/>
    </contour>
  </outline>
</glyph>
<glyph name="uni030F" format="1">
  <advance width="205"/>
  <unicode hex="030F"/>
  <outline>
    <contour>
      <point x="65" y="394" type="line"/>
      <point x="88" y="369"/>
      <point x="140" y="394"/>
      <point x="116" y="426" type="curve" smooth="yes"/>
      <point x="-14" y="602" type="line"/>
      <point x="-60" y="673"/>
      <point x="-150" y="609"/>
      <point x="-93" y="552" type="curve" smooth="yes"/>
    </contour>
    <contour>
      <point x="232" y="380" type="line"/>
      <point x="253" y="352"/>
      <point x="301" y="377"/>
      <point x="283" y="412" type="curve" smooth="yes"/>
      <point x="201" y="602" type="line"/>
      <point x="168" y="678"/>
      <point x="74" y="620"/>
      <point x="119" y="552" type="curve" smooth="yes"/>
    </contour>
    <contour>
      <point x="191" y="343" type="move" name="_top"/>
    </contour>
  </outline>
</glyph>
<glyph name="uni0311" format="1">
  <advance width="205"/>
  <unicode hex="0311"/>
  <outline>
    <contour>
      <point x="44" y="451" type="curve" smooth="yes"/>
      <point x="59" y="489"/>
      <point x="95" y="504"/>
      <point x="127" y="504" type="curve" smooth="yes"/>
      <point x="163" y="505"/>
      <point x="193" y="487"/>
      <point x="184" y="461" type="curve" smooth="yes"/>
      <point x="174" y="432"/>
      <point x="237" y="429"/>
      <point x="241" y="461" type="curve" smooth="yes"/>
      <point x="249" y="527"/>
      <point x="194" y="561"/>
      <point x="133" y="562" type="curve" smooth="yes"/>
      <point x="69" y="563"/>
      <point x="-0" y="528"/>
      <point x="-10" y="456" type="curve" smooth="yes"/>
      <point x="-13" y="434"/>
      <point x="39" y="437"/>
    </contour>
    <contour>
      <point x="91" y="343" type="move" name="_top"/>
    </contour>
  </outline>
</glyph>
<glyph name="quoteright" format="1">
  <advance width="219"/>
  <unicode hex="2019"/>
  <outline>
    <contour>
      <point x="54" y="399"/>
      <point x="59" y="385"/>
      <point x="81" y="383" type="curve" smooth="yes"/>
      <point x="100" y="381"/>
      <point x="112" y="391"/>
      <point x="120" y="412" type="curve" smooth="yes"/>
      <point x="140" y="463"/>
      <point x="171" y="554"/>
      <point x="187" y="596" type="curve" smooth="yes"/>
      <point x="196" y="621"/>
      <point x="179" y="635"/>
      <point x="160" y="639" type="curve" smooth="yes"/>
      <point x="123" y="647"/>
      <point x="99" y="637"/>
      <point x="94" y="612" type="curve" smooth="yes"/>
      <point x="82" y="553"/>
      <point x="64" y="453"/>
      <point x="58" y="421" type="curve" smooth="yes"/>
    </contour>
  </outline>
</glyph>
<glyph name="quotedblleft" format="1">
  <advance width="436"/>
  <unicode hex="201C"/>
  <outline>
    <contour>
      <point x="266" y="641" type="curve" smooth="yes"/>
      <point x="247" y="643"/>
      <point x="235" y="633"/>
      <point x="227" y="612" type="curve" smooth="yes"/>
      <point x="207" y="561"/>
      <point x="176" y="470"/>
      <point x="160" y="428" type="curve" smooth="yes"/>
      <point x="151" y="403"/>
      <point x="168" y="389"/>
      <point x="187" y="385" type="curve" smooth="yes"/>
      <point x="224" y="377"/>
      <point x="248" y="387"/>
      <point x="253" y="412" type="curve" smooth="yes"/>
      <point x="265" y="471"/>
      <point x="283" y="571"/>
      <point x="289" y="603" type="curve" smooth="yes"/>
      <point x="293" y="625"/>
      <point x="288" y="639"/>
    </contour>
    <contour>
      <point x="410" y="640" type="curve" smooth="yes"/>
      <point x="390" y="642"/>
      <point x="379" y="633"/>
      <point x="373" y="614" type="curve" smooth="yes"/>
      <point x="367" y="595"/>
      <point x="326" y="468"/>
      <point x="314" y="427" type="curve" smooth="yes"/>
      <point x="306" y="399"/>
      <point x="323" y="387"/>
      <point x="346" y="385" type="curve" smooth="yes"/>
      <point x="372" y="383"/>
      <point x="397" y="387"/>
      <point x="403" y="420" type="curve" smooth="yes"/>
      <point x="410" y="459"/>
      <point x="425" y="552"/>
      <point x="431" y="604" type="curve" smooth="yes"/>
      <point x="433" y="624"/>
      <point x="432" y="638"/>
    </contour>
  </outline>
</glyph>
<glyph name="quotedblbase" format="1">
  <advance width="449.999"/>
  <unicode hex="201E"/>
  <outline>
    <contour>
      <point x="289" y="-117" type="curve" smooth="yes"/>
      <point x="308" y="-119"/>
      <point x="320" y="-109"/>
      <point x="328" y="-88" type="curve" smooth="yes"/>
      <point x="348" y="-37"/>
      <point x="379" y="54"/>
      <point x="395" y="96" type="curve" smooth="yes"/>
      <point x="404" y="121"/>
      <point x="387" y="135"/>
      <point x="368" y="139" type="curve" smooth="yes"/>
      <point x="331" y="147"/>
      <point x="307" y="137"/>
      <point x="302" y="112" type="curve" smooth="yes"/>
      <point x="290" y="53"/>
      <point x="272" y="-47"/>
      <point x="266" y="-79" type="curve" smooth="yes"/>
      <point x="262" y="-101"/>
      <point x="267" y="-115"/>
    </contour>
    <contour>
      <point x="145" y="-116" type="curve" smooth="yes"/>
      <point x="165" y="-118"/>
      <point x="176" y="-109"/>
      <point x="182" y="-90" type="curve" smooth="yes"/>
      <point x="188" y="-71"/>
      <point x="229" y="56"/>
      <point x="241" y="97" type="curve" smooth="yes"/>
      <point x="249" y="125"/>
      <point x="232" y="137"/>
      <point x="209" y="139" type="curve" smooth="yes"/>
      <point x="183" y="141"/>
      <point x="158" y="137"/>
      <point x="152" y="104" type="curve" smooth="yes"/>
      <point x="145" y="65"/>
      <point x="130" y="-28"/>
      <point x="124" y="-80" type="curve" smooth="yes"/>
      <point x="122" y="-100"/>
      <point x="123" y="-114"/>
    </contour>
  </outline>
</glyph>
<glyph name="perthousand" format="1">
  <advance width="1104"/>
  <unicode hex="2030"/>
  <outline>
    <contour>
      <point x="169" y="239" type="curve" smooth="yes"/>
      <point x="269" y="236"/>
      <point x="338" y="303"/>
      <point x="344" y="437" type="curve" smooth="yes"/>
      <point x="348" y="524"/>
      <point x="301" y="608"/>
      <point x="210" y="610" type="curve" smooth="yes"/>
      <point x="95" y="613"/>
      <point x="32" y="508"/>
      <point x="32" y="395" type="curve" smooth="yes"/>
      <point x="32" y="309"/>
      <point x="78" y="241"/>
    </contour>
    <contour>
      <point x="295" y="-7" type="curve" smooth="yes"/>
      <point x="371" y="144"/>
      <point x="522" y="446"/>
      <point x="571" y="546" type="curve" smooth="yes"/>
      <point x="588" y="585"/>
      <point x="526" y="637"/>
      <point x="496" y="579" type="curve" smooth="yes"/>
      <point x="446" y="480"/>
      <point x="295" y="175"/>
      <point x="224" y="34" type="curve" smooth="yes"/>
      <point x="184" y="-42"/>
      <point x="267" y="-63"/>
    </contour>
    <contour>
      <point x="571" y="-22" type="curve" smooth="yes"/>
      <point x="671" y="-33"/>
      <point x="743" y="46"/>
      <point x="750" y="173" type="curve" smooth="yes"/>
      <point x="755" y="254"/>
      <point x="713" y="338"/>
      <point x="628" y="348" type="curve" smooth="yes"/>
      <point x="515" y="361"/>
      <point x="446" y="259"/>
      <point x="442" y="147" type="curve" smooth="yes"/>
      <point x="439" y="60"/>
      <point x="488" y="-14"/>
    </contour>
    <contour>
      <point x="918" y="-25" type="curve" smooth="yes"/>
      <point x="1020" y="-31"/>
      <point x="1090" y="48"/>
      <point x="1095" y="176" type="curve" smooth="yes"/>
      <point x="1098" y="257"/>
      <point x="1053" y="341"/>
      <point x="969" y="347" type="curve" smooth="yes"/>
      <point x="853" y="356"/>
      <point x="789" y="251"/>
      <point x="787" y="141" type="curve" smooth="yes"/>
      <point x="785" y="54"/>
      <point x="834" y="-19"/>
    </contour>
    <contour>
      <point x="173" y="314" type="curve" smooth="yes"/>
      <point x="96" y="316"/>
      <point x="107" y="534"/>
      <point x="206" y="531" type="curve" smooth="yes"/>
      <point x="282" y="528"/>
      <point x="279" y="312"/>
    </contour>
    <contour>
      <point x="581" y="52" type="curve" smooth="yes"/>
      <point x="499" y="62"/>
      <point x="519" y="281"/>
      <point x="617" y="271" type="curve"/>
      <point x="692" y="264"/>
      <point x="674" y="42"/>
    </contour>
    <contour>
      <point x="927" y="50" type="curve" smooth="yes"/>
      <point x="846" y="56"/>
      <point x="863" y="276"/>
      <point x="961" y="270" type="curve" smooth="yes"/>
      <point x="1036" y="265"/>
      <point x="1022" y="43"/>
    </contour>
  </outline>
</glyph>
<glyph name="product" format="1">
  <advance width="772"/>
  <unicode hex="220F"/>
  <outline>
    <contour>
      <point x="133" y="629" type="curve" smooth="yes"/>
      <point x="78" y="622"/>
      <point x="87" y="521"/>
      <point x="141" y="531" type="curve" smooth="yes"/>
      <point x="185" y="537"/>
      <point x="206" y="543"/>
      <point x="289" y="542" type="curve"/>
      <point x="127" y="203"/>
      <point x="131" y="-10"/>
      <point x="140" y="-43" type="curve" smooth="yes"/>
      <point x="161" y="-129"/>
      <point x="255" y="-129"/>
      <point x="270" y="-38" type="curve" smooth="yes"/>
      <point x="277" y="4"/>
      <point x="251" y="150"/>
      <point x="378" y="542" type="curve"/>
      <point x="409" y="540"/>
      <point x="444" y="541"/>
      <point x="484" y="540" type="curve" smooth="yes"/>
      <point x="545" y="538"/>
      <point x="606" y="537"/>
      <point x="647" y="536" type="curve"/>
      <point x="514" y="178"/>
      <point x="518" y="-11"/>
      <point x="525" y="-43" type="curve" smooth="yes"/>
      <point x="549" y="-129"/>
      <point x="641" y="-129"/>
      <point x="656" y="-38" type="curve" smooth="yes"/>
      <point x="663" y="6"/>
      <point x="612" y="161"/>
      <point x="738" y="534" type="curve"/>
      <point x="780" y="534"/>
      <point x="844" y="535"/>
      <point x="865" y="537" type="curve" smooth="yes"/>
      <point x="901" y="541"/>
      <point x="927" y="637"/>
      <point x="860" y="637" type="curve" smooth="yes"/>
      <point x="496" y="637"/>
      <point x="319" y="654"/>
    </contour>
  </outline>
</glyph>
